<svg width="22" height="17" viewBox="0 0 22 17" fill="none" xmlns="http://www.w3.org/2000/svg">
<path d="M0.912154 16.1929V11.4372C0.912154 10.0868 1.17636 8.70708 1.70477 7.29798C2.23318 5.88889 2.93038 4.56053 3.79639 3.3129C4.66239 2.06526 5.60178 1.02312 6.61457 0.186478L10.7538 2.63037C9.9318 3.92204 9.25661 5.27242 8.7282 6.68151C8.21447 8.0906 7.95761 9.66115 7.95761 11.3932V16.1929H0.912154ZM12.0308 16.1929V11.4372C12.0308 10.0868 12.295 8.70708 12.8234 7.29798C13.3518 5.88889 14.049 4.56053 14.915 3.3129C15.781 2.06526 16.7204 1.02312 17.7332 0.186478L21.8724 2.63037C21.0504 3.92204 20.3752 5.27242 19.8468 6.68151C19.3331 8.0906 19.0762 9.66115 19.0762 11.3932V16.1929H12.0308Z" fill="white"/>
</svg>
