<svg width="115" height="11" viewBox="0 0 115 11" fill="none" xmlns="http://www.w3.org/2000/svg">
<path d="M6.83239 3.15416C6.77273 2.65038 6.53078 2.25928 6.10653 1.98087C5.68229 1.70246 5.16193 1.56325 4.54545 1.56325C4.0947 1.56325 3.70028 1.63617 3.36222 1.782C3.02746 1.92784 2.76563 2.12836 2.5767 2.38357C2.3911 2.63878 2.2983 2.92878 2.2983 3.25359C2.2983 3.52538 2.36293 3.75904 2.49219 3.95459C2.62476 4.14682 2.7938 4.30757 2.99929 4.43683C3.20478 4.56278 3.42022 4.66718 3.6456 4.75004C3.87098 4.82959 4.07812 4.89422 4.26705 4.94394L5.30114 5.22235C5.56629 5.29195 5.86127 5.38807 6.18608 5.5107C6.5142 5.63333 6.82741 5.80071 7.12571 6.01283C7.42732 6.22164 7.6759 6.4901 7.87145 6.81823C8.067 7.14635 8.16477 7.54905 8.16477 8.02632C8.16477 8.57651 8.0206 9.07367 7.73224 9.5178C7.44721 9.96193 7.02959 10.3149 6.4794 10.5767C5.93253 10.8386 5.26799 10.9695 4.4858 10.9695C3.75663 10.9695 3.12524 10.8518 2.59162 10.6165C2.06132 10.3812 1.6437 10.0531 1.33878 9.63215C1.03717 9.21122 0.866477 8.72235 0.826705 8.16553H2.09943C2.13258 8.55 2.26184 8.86818 2.48722 9.12007C2.71591 9.36865 3.00426 9.55426 3.35227 9.67689C3.7036 9.79621 4.08144 9.85587 4.4858 9.85587C4.95644 9.85587 5.37902 9.77964 5.75355 9.62718C6.12808 9.4714 6.42472 9.25596 6.64347 8.98087C6.86222 8.70246 6.97159 8.37765 6.97159 8.00644C6.97159 7.66837 6.87713 7.39327 6.68821 7.18115C6.49929 6.96903 6.25071 6.79668 5.94247 6.66411C5.63423 6.53153 5.30114 6.41553 4.94318 6.3161L3.69034 5.95814C2.89489 5.72945 2.26515 5.40298 1.80114 4.97874C1.33712 4.55449 1.10511 3.99933 1.10511 3.31325C1.10511 2.74318 1.25923 2.24602 1.56747 1.82178C1.87902 1.39422 2.29664 1.06278 2.82031 0.827459C3.3473 0.588822 3.93561 0.469504 4.58523 0.469504C5.24148 0.469504 5.82481 0.587165 6.33523 0.822487C6.84564 1.05449 7.25 1.37268 7.5483 1.77703C7.84991 2.18139 8.009 2.64043 8.02557 3.15416H6.83239ZM13.2346 10.9496C12.4988 10.9496 11.8641 10.7872 11.3304 10.4624C10.8001 10.1343 10.3908 9.67689 10.1025 9.09024C9.81741 8.50028 9.67489 7.8142 9.67489 7.032C9.67489 6.24981 9.81741 5.56041 10.1025 4.96382C10.3908 4.36392 10.7918 3.89659 11.3056 3.56183C11.8226 3.22377 12.4258 3.05473 13.1152 3.05473C13.513 3.05473 13.9057 3.12102 14.2935 3.25359C14.6813 3.38617 15.0343 3.60161 15.3525 3.8999C15.6706 4.19488 15.9242 4.58598 16.1131 5.0732C16.302 5.56041 16.3965 6.16032 16.3965 6.87291V7.37007H10.5101V6.35587H15.2033C15.2033 5.925 15.1171 5.54053 14.9448 5.20246C14.7757 4.86439 14.5338 4.59758 14.2189 4.40203C13.9074 4.20648 13.5395 4.10871 13.1152 4.10871C12.6479 4.10871 12.2435 4.22471 11.9022 4.45672C11.5641 4.68541 11.3039 4.98371 11.1216 5.35161C10.9393 5.7195 10.8482 6.11392 10.8482 6.53485V7.21098C10.8482 7.78769 10.9476 8.27656 11.1465 8.6776C11.3487 9.07533 11.6287 9.3786 11.9867 9.5874C12.3446 9.79289 12.7606 9.89564 13.2346 9.89564C13.5428 9.89564 13.8212 9.85255 14.0698 9.76638C14.3217 9.67689 14.5388 9.54432 14.7211 9.36865C14.9034 9.18968 15.0442 8.96761 15.1436 8.70246L16.2772 9.02064C16.1578 9.40511 15.9573 9.74318 15.6756 10.0348C15.3939 10.3232 15.0459 10.5486 14.6316 10.711C14.2173 10.8701 13.7516 10.9496 13.2346 10.9496ZM21.383 10.9496C20.6472 10.9496 20.0125 10.7872 19.4789 10.4624C18.9486 10.1343 18.5392 9.67689 18.2509 9.09024C17.9658 8.50028 17.8233 7.8142 17.8233 7.032C17.8233 6.24981 17.9658 5.56041 18.2509 4.96382C18.5392 4.36392 18.9403 3.89659 19.454 3.56183C19.9711 3.22377 20.5743 3.05473 21.2637 3.05473C21.6614 3.05473 22.0542 3.12102 22.4419 3.25359C22.8297 3.38617 23.1827 3.60161 23.5009 3.8999C23.8191 4.19488 24.0726 4.58598 24.2615 5.0732C24.4505 5.56041 24.5449 6.16032 24.5449 6.87291V7.37007H18.6586V6.35587H23.3517C23.3517 5.925 23.2656 5.54053 23.0932 5.20246C22.9242 4.86439 22.6822 4.59758 22.3674 4.40203C22.0558 4.20648 21.6879 4.10871 21.2637 4.10871C20.7963 4.10871 20.392 4.22471 20.0506 4.45672C19.7125 4.68541 19.4524 4.98371 19.2701 5.35161C19.0878 5.7195 18.9966 6.11392 18.9966 6.53485V7.21098C18.9966 7.78769 19.0961 8.27656 19.2949 8.6776C19.4971 9.07533 19.7772 9.3786 20.1351 9.5874C20.4931 9.79289 20.909 9.89564 21.383 9.89564C21.6912 9.89564 21.9696 9.85255 22.2182 9.76638C22.4701 9.67689 22.6872 9.54432 22.8695 9.36865C23.0518 9.18968 23.1926 8.96761 23.2921 8.70246L24.4256 9.02064C24.3063 9.40511 24.1058 9.74318 23.824 10.0348C23.5423 10.3232 23.1943 10.5486 22.78 10.711C22.3657 10.8701 21.9 10.9496 21.383 10.9496ZM32.5144 10.9695C32.0305 10.9695 31.5913 10.8784 31.1969 10.6961C30.8025 10.5105 30.4893 10.2437 30.2573 9.89564C30.0253 9.54432 29.9093 9.12007 29.9093 8.62291C29.9093 8.18541 29.9954 7.83077 30.1678 7.55899C30.3401 7.2839 30.5705 7.06846 30.8588 6.91269C31.1472 6.75691 31.4654 6.64091 31.8134 6.56468C32.1647 6.48513 32.5177 6.42216 32.8723 6.37575C33.3364 6.3161 33.7125 6.27135 34.0009 6.24152C34.2926 6.20838 34.5047 6.15369 34.6373 6.07746C34.7731 6.00123 34.8411 5.86865 34.8411 5.67973V5.63996C34.8411 5.14943 34.7069 4.76827 34.4384 4.49649C34.1732 4.22471 33.7705 4.08882 33.2303 4.08882C32.6702 4.08882 32.231 4.21146 31.9128 4.45672C31.5946 4.70199 31.3709 4.96382 31.2417 5.24223L30.128 4.8445C30.3269 4.38049 30.592 4.01922 30.9235 3.7607C31.2582 3.49886 31.6228 3.31657 32.0172 3.21382C32.415 3.10776 32.806 3.05473 33.1905 3.05473C33.4358 3.05473 33.7175 3.08456 34.0357 3.14422C34.3572 3.20056 34.6671 3.31823 34.9654 3.4972C35.267 3.67618 35.5172 3.9463 35.7161 4.30757C35.915 4.66884 36.0144 5.15274 36.0144 5.75928V10.7905H34.8411V9.75644H34.7814C34.7019 9.92216 34.5693 10.0995 34.3837 10.2884C34.1981 10.4773 33.9512 10.6381 33.6429 10.7706C33.3347 10.9032 32.9585 10.9695 32.5144 10.9695ZM32.6934 9.91553C33.1574 9.91553 33.5485 9.82438 33.8667 9.64209C34.1882 9.4598 34.4301 9.22448 34.5925 8.93612C34.7582 8.64777 34.8411 8.3445 34.8411 8.02632V6.95246C34.7914 7.01212 34.682 7.06681 34.513 7.11652C34.3472 7.16292 34.155 7.20435 33.9363 7.24081C33.7208 7.27396 33.5104 7.30378 33.3049 7.3303C33.1027 7.3535 32.9386 7.37339 32.8127 7.38996C32.5078 7.42973 32.2227 7.49436 31.9576 7.58385C31.6957 7.67003 31.4836 7.80094 31.3212 7.97661C31.1621 8.14896 31.0826 8.38428 31.0826 8.68257C31.0826 9.09024 31.2334 9.39848 31.535 9.60729C31.8399 9.81278 32.226 9.91553 32.6934 9.91553ZM39.3292 0.608709V10.7905H38.1559V0.608709H39.3292ZM42.6515 0.608709V10.7905H41.4782V0.608709H42.6515ZM48.7379 10.7905V3.15416H49.8714V4.30757H49.951C50.0902 3.92973 50.3421 3.62315 50.7067 3.38783C51.0713 3.15251 51.4822 3.03484 51.9396 3.03484C52.0258 3.03484 52.1335 3.0365 52.2628 3.03982C52.392 3.04313 52.4898 3.0481 52.5561 3.05473V4.24791C52.5163 4.23797 52.4252 4.22306 52.2827 4.20317C52.1435 4.17997 51.996 4.16837 51.8402 4.16837C51.469 4.16837 51.1375 4.24626 50.8459 4.40203C50.5575 4.55449 50.3288 4.76662 50.1598 5.0384C49.9941 5.30686 49.9112 5.61344 49.9112 5.95814V10.7905H48.7379ZM56.9162 10.9496C56.1804 10.9496 55.5457 10.7872 55.0121 10.4624C54.4818 10.1343 54.0724 9.67689 53.7841 9.09024C53.4991 8.50028 53.3565 7.8142 53.3565 7.032C53.3565 6.24981 53.4991 5.56041 53.7841 4.96382C54.0724 4.36392 54.4735 3.89659 54.9872 3.56183C55.5043 3.22377 56.1075 3.05473 56.7969 3.05473C57.1946 3.05473 57.5874 3.12102 57.9751 3.25359C58.3629 3.38617 58.7159 3.60161 59.0341 3.8999C59.3523 4.19488 59.6058 4.58598 59.7947 5.0732C59.9837 5.56041 60.0781 6.16032 60.0781 6.87291V7.37007H54.1918V6.35587H58.8849C58.8849 5.925 58.7988 5.54053 58.6264 5.20246C58.4574 4.86439 58.2154 4.59758 57.9006 4.40203C57.589 4.20648 57.2211 4.10871 56.7969 4.10871C56.3295 4.10871 55.9252 4.22471 55.5838 4.45672C55.2457 4.68541 54.9856 4.98371 54.8033 5.35161C54.621 5.7195 54.5298 6.11392 54.5298 6.53485V7.21098C54.5298 7.78769 54.6293 8.27656 54.8281 8.6776C55.0303 9.07533 55.3104 9.3786 55.6683 9.5874C56.0263 9.79289 56.4422 9.89564 56.9162 9.89564C57.2244 9.89564 57.5028 9.85255 57.7514 9.76638C58.0033 9.67689 58.2204 9.54432 58.4027 9.36865C58.585 9.18968 58.7259 8.96761 58.8253 8.70246L59.9588 9.02064C59.8395 9.40511 59.639 9.74318 59.3572 10.0348C59.0755 10.3232 58.7275 10.5486 58.3132 10.711C57.8989 10.8701 57.4332 10.9496 56.9162 10.9496ZM67.8748 3.15416L65.051 10.7905H63.8578L61.0339 3.15416H62.3066L64.4146 9.23939H64.4941L66.6021 3.15416H67.8748ZM69.4235 10.7905V3.15416H70.5968V10.7905H69.4235ZM70.0201 1.88144C69.7914 1.88144 69.5942 1.80355 69.4284 1.64777C69.266 1.492 69.1848 1.30473 69.1848 1.08598C69.1848 0.867232 69.266 0.679969 69.4284 0.524192C69.5942 0.368415 69.7914 0.290527 70.0201 0.290527C70.2488 0.290527 70.4443 0.368415 70.6067 0.524192C70.7724 0.679969 70.8553 0.867232 70.8553 1.08598C70.8553 1.30473 70.7724 1.492 70.6067 1.64777C70.4443 1.80355 70.2488 1.88144 70.0201 1.88144ZM75.9474 10.9496C75.2116 10.9496 74.5769 10.7872 74.0433 10.4624C73.513 10.1343 73.1037 9.67689 72.8153 9.09024C72.5303 8.50028 72.3878 7.8142 72.3878 7.032C72.3878 6.24981 72.5303 5.56041 72.8153 4.96382C73.1037 4.36392 73.5047 3.89659 74.0185 3.56183C74.5355 3.22377 75.1387 3.05473 75.8281 3.05473C76.2259 3.05473 76.6186 3.12102 77.0064 3.25359C77.3942 3.38617 77.7472 3.60161 78.0653 3.8999C78.3835 4.19488 78.6371 4.58598 78.826 5.0732C79.0149 5.56041 79.1094 6.16032 79.1094 6.87291V7.37007H73.223V6.35587H77.9162C77.9162 5.925 77.83 5.54053 77.6577 5.20246C77.4886 4.86439 77.2467 4.59758 76.9318 4.40203C76.6203 4.20648 76.2524 4.10871 75.8281 4.10871C75.3608 4.10871 74.9564 4.22471 74.6151 4.45672C74.277 4.68541 74.0168 4.98371 73.8345 5.35161C73.6522 5.7195 73.5611 6.11392 73.5611 6.53485V7.21098C73.5611 7.78769 73.6605 8.27656 73.8594 8.6776C74.0616 9.07533 74.3416 9.3786 74.6996 9.5874C75.0575 9.79289 75.4735 9.89564 75.9474 9.89564C76.2557 9.89564 76.5341 9.85255 76.7827 9.76638C77.0346 9.67689 77.2517 9.54432 77.4339 9.36865C77.6162 9.18968 77.7571 8.96761 77.8565 8.70246L78.9901 9.02064C78.8707 9.40511 78.6702 9.74318 78.3885 10.0348C78.1068 10.3232 77.7588 10.5486 77.3445 10.711C76.9302 10.8701 76.4645 10.9496 75.9474 10.9496ZM82.6243 10.7905L80.2976 3.15416H81.5305L83.1811 9.00075H83.2607L84.8913 3.15416H86.1442L87.755 8.98087H87.8345L89.4851 3.15416H90.718L88.3913 10.7905H87.2379L85.5675 4.92405H85.4482L83.7777 10.7905H82.6243ZM97.6783 4.86439L96.6243 5.16269C96.558 4.98702 96.4602 4.81633 96.331 4.65061C96.205 4.48158 96.0327 4.34237 95.8139 4.233C95.5952 4.12362 95.3151 4.06894 94.9737 4.06894C94.5064 4.06894 94.117 4.17665 93.8054 4.39209C93.4972 4.60421 93.343 4.87433 93.343 5.20246C93.343 5.49413 93.4491 5.72448 93.6612 5.89351C93.8733 6.06254 94.2048 6.20341 94.6555 6.3161L95.7891 6.5945C96.4718 6.76022 96.9806 7.01378 97.3153 7.35516C97.6501 7.69323 97.8175 8.12907 97.8175 8.66269C97.8175 9.10019 97.6915 9.49128 97.4396 9.83598C97.1911 10.1807 96.843 10.4525 96.3956 10.6513C95.9482 10.8502 95.4278 10.9496 94.8345 10.9496C94.0556 10.9496 93.411 10.7806 92.9006 10.4425C92.3902 10.1044 92.067 9.6106 91.9311 8.96098L93.0447 8.68257C93.1508 9.09356 93.3513 9.4018 93.6463 9.60729C93.9446 9.81278 94.334 9.91553 94.8146 9.91553C95.3615 9.91553 95.7957 9.79952 96.1172 9.56752C96.442 9.33219 96.6044 9.05047 96.6044 8.72235C96.6044 8.45719 96.5116 8.23513 96.326 8.05615C96.1404 7.87386 95.8554 7.73797 95.4709 7.64848L94.1982 7.35019C93.4988 7.18447 92.9851 6.9276 92.657 6.57959C92.3321 6.22826 92.1697 5.78911 92.1697 5.26212C92.1697 4.83125 92.2907 4.45009 92.5327 4.11865C92.7779 3.78721 93.111 3.52703 93.532 3.33811C93.9562 3.14919 94.4368 3.05473 94.9737 3.05473C95.7294 3.05473 96.3227 3.22045 96.7536 3.55189C97.1877 3.88333 97.496 4.32083 97.6783 4.86439ZM109.974 10.7905L109.209 10.0348L112.361 6.88286H104.197V5.78911H112.361L109.209 2.64706L109.974 1.88144L114.429 6.33598L109.974 10.7905Z" fill="white"/>
</svg>
